<?xml version="1.0" encoding="UTF-8" standalone="no"?>
<!-- Created with Inkscape (http://www.inkscape.org/) -->

<svg
   version="1.1"
   id="svg1"
   width="1024"
   height="1024"
   viewBox="0 0 1024 1024"
   sodipodi:docname="FramesCLI logo2.svg"
   inkscape:version="1.4.2 (f4327f4, 2025-05-13)"
   xmlns:inkscape="http://www.inkscape.org/namespaces/inkscape"
   xmlns:sodipodi="http://sodipodi.sourceforge.net/DTD/sodipodi-0.dtd"
   xmlns="http://www.w3.org/2000/svg"
   xmlns:svg="http://www.w3.org/2000/svg">
  <defs
     id="defs1" />
  <sodipodi:namedview
     id="namedview1"
     pagecolor="#ffffff"
     bordercolor="#000000"
     borderopacity="0.25"
     inkscape:showpageshadow="2"
     inkscape:pageopacity="0.0"
     inkscape:pagecheckerboard="0"
     inkscape:deskcolor="#d1d1d1"
     inkscape:zoom="1.1162109"
     inkscape:cx="512"
     inkscape:cy="440.32896"
     inkscape:window-width="2560"
     inkscape:window-height="1361"
     inkscape:window-x="-9"
     inkscape:window-y="-9"
     inkscape:window-maximized="1"
     inkscape:current-layer="g1" />
  <g
     inkscape:groupmode="layer"
     inkscape:label="Image"
     id="g1">
    <path
       style="fill:#000000"
       d="m 329,778.96708 c -11.7936,-1.03401 -22.32118,-5.84502 -33.11076,-15.13133 -8.33151,-7.1707 -15.23972,-17.18918 -20.04638,-29.07181 L 272.5,726.5 V 640.00755 553.5151 l -5.59747,-1.50755 c -14.95793,-4.02857 -29.52797,-18.75484 -32.86374,-33.21614 -0.60099,-2.60541 -0.9995,-31.48346 -1.01434,-73.5039 -0.0239,-67.51608 0.0262,-69.34773 2.04005,-74.73036 2.49678,-6.67325 7.28103,-10.96676 14.40449,-12.92698 5.2396,-1.44182 94.51514,-23.59492 181.53101,-45.04564 60.66978,-14.95602 132.06235,-32.61718 210.5,-52.0737 100.67786,-24.97322 99.69541,-24.74461 103.91582,-24.18027 5.138,0.68704 11.32737,5.10806 15.1924,10.85184 C 767.33894,257.18484 787,315.91705 787,326.02086 c 0,8.24269 -4.40254,16.01566 -11.03493,19.48288 -2.82566,1.47717 -25.2884,7.27034 -77.46507,19.97835 -36.88536,8.9837 -72.27661,17.63415 -132.5,32.38607 -20.075,4.91744 -42.35,10.32357 -49.5,12.01362 -7.15,1.69005 -21.1,5.0587 -31,7.48589 l -18,4.41306 78,0.19342 c 42.9,0.10638 111.52567,0.27242 152.50148,0.36897 l 74.50148,0.17555 4.71463,2.76296 c 6.05747,3.54991 9.44621,8.05228 10.79531,14.34291 0.69528,3.24197 0.97206,18.80187 0.78174,43.94722 -0.32945,43.52723 -0.13299,42.25352 -7.75249,50.26327 -4.40872,4.63453 -9.8626,7.64714 -17.29282,9.5522 L 758.5,544.73312 v 88.38344 c 0,69.75657 -0.27964,89.64794 -1.32688,94.38344 -0.72978,3.3 -3.37078,10.275 -5.86889,15.5 -8.4987,17.77573 -25.44136,31.08692 -45.09785,35.43164 -6.58038,1.45448 -25.0137,1.59163 -188.5,1.40257 C 418.04287,779.71895 333.125,779.32875 329,778.96708 Z m 94.99974,-37.23021 2.6e-4,-5.76313 -34.25,0.26313 -34.25,0.26313 -0.31309,4.3644 c -0.1722,2.40043 -0.10248,4.91323 0.15492,5.58401 0.35641,0.92878 8.59826,1.19958 34.56282,1.1356 l 34.09482,-0.084 z m 43.51001,-30.09137 c -0.40529,-19.99498 -0.46616,-37.20748 -0.13529,-38.25 0.58623,-1.84706 3.31691,-1.88915 106.86357,-1.64695 58.44408,0.1367 110.89815,-0.0207 116.56459,-0.34982 l 10.30262,-0.59836 -0.30262,-4.15019 L 700.5,662.5 516.25,662.24734 332,661.99468 v 5.04033 5.04033 l 62.5,-0.69875 62.5,-0.69876 0.0136,36.41109 c 0.008,20.02609 0.285,37.42358 0.61664,38.66108 0.5235,1.95344 1.26287,2.25 5.60966,2.25 h 5.00669 z M 432,620.01529 v -4.98472 l -23.95109,0.23472 c -14.3741,0.14086 -24.31823,0.63457 -24.86929,1.23471 -0.50501,0.55 -0.70279,2.6875 -0.4395,4.75 l 0.47869,3.75 H 407.60941 432 Z m -93.19227,-10.37344 c 1.75796,-1.29698 8.03288,-4.428 13.94428,-6.95782 5.91139,-2.52982 12.99312,-5.68839 15.73716,-7.01904 l 4.98917,-2.41937 0.0108,-5.56532 0.0108,-5.56532 -18.86717,-9.05749 C 344.25588,568.07587 335.42757,564 335.01436,564 c -0.41321,0 -0.80613,2.3788 -0.87316,5.28621 l -0.12187,5.28621 10.74034,5.15963 c 5.90718,2.8378 12.09033,5.67847 13.74033,6.31262 2.9731,1.14265 2.88446,1.20958 -9.88518,7.46387 -7.08685,3.47098 -13.26746,6.91401 -13.73469,7.65117 C 333.79719,602.8683 333.73451,612 334.80572,612 c 0.44315,0 2.24405,-1.06117 4.00201,-2.35815 z m 42.75895,-107.38704 c 4.36333,-5.35986 11.0679,-13.29833 14.89905,-17.64105 3.83115,-4.34272 11.14072,-13.11988 16.24349,-19.50481 l 9.27777,-11.60895 -17.558,-0.27334 c -9.6569,-0.15033 -25.18058,-0.15033 -34.49706,0 l -16.93907,0.27334 3.57776,5 c 5.81256,8.12318 6.76806,11.06446 6.82205,21 0.0353,6.48793 -0.40488,9.83736 -1.57687,12 -2.09656,3.86873 -5.58352,7.08932 -9.1309,8.43339 C 350.84642,500.62997 334.62787,501 305.9349,501 H 262 l 0.0153,3.75 c 0.008,2.0625 0.364,4.29878 0.79018,4.96951 0.92616,1.45764 10.93793,1.75572 69.26119,2.06212 L 373.63336,512 Z M 651.55701,501.5 c 4.36722,-4.95 8.61598,-9.675 9.4417,-10.5 2.54548,-2.54329 19.23634,-22.07141 25.89066,-30.29177 l 6.30737,-7.79177 -35.53386,0.13373 -35.53387,0.13373 -5.3145,5.66359 c -8.31042,8.85628 -43.28268,50.14999 -43.5903,51.4695 -0.20999,0.90074 8.15464,1.06369 35.0583,0.68299 l 35.33409,-0.5 z m 94.47019,9.50406 13.52719,-0.004 -0.0272,-28.49636 c -0.015,-15.673 -0.31702,-28.498 -0.67125,-28.5 -0.35423,-0.002 -3.93477,3.70886 -7.95675,8.24636 -4.02198,4.5375 -10.25716,11.41091 -13.85595,15.27425 -11.88201,12.75545 -29.53654,32.65455 -29.93034,33.73563 -0.26833,0.73663 3.56678,0.86102 12.5,0.40545 7.0879,-0.36147 18.97433,-0.65904 26.41429,-0.66127 z M 515.58482,502.83985 C 519.38817,498.35177 525.65,490.99544 529.5,486.49246 539.44336,474.86266 555.4387,455.1039 555.83333,453.96337 556.04289,453.35773 543.368,453 521.6997,453 h -34.46698 l -3.36636,3.84554 c -1.8515,2.11505 -4.68014,5.37755 -6.28587,7.25 -3.1257,3.64491 -30.53201,35.18005 -36.93456,42.49885 L 436.79187,511 h 35.93888 35.93889 z M 343.66323,478.52333 c 4.45829,-3.12271 3.6945,-11.12804 -1.27787,-13.39361 C 336.23694,462.32831 331,465.27937 331,471.54545 c 0,6.7152 7.29735,10.73629 12.66323,6.97788 z m -58.08862,-2.22773 c 0.74898,-0.98758 1.37609,-3.45044 1.39359,-5.47302 0.0596,-6.8863 -7.67673,-10.20496 -12.51365,-5.36803 -5.52978,5.52977 -1.21361,14.41715 6.40155,13.18138 1.8462,-0.2996 3.96953,-1.35275 4.71851,-2.34033 z m 62.5846,-55.66664 c 9.53743,-2.40407 24.09079,-5.98201 32.34079,-7.95098 37.11621,-8.85828 45.5,-11.03472 45.5,-11.81184 0,-0.45693 -5.9625,-4.84769 -13.25,-9.75725 -7.2875,-4.90955 -20.225,-13.69249 -28.75,-19.51765 -8.525,-5.82515 -16.4861,-10.5912 -17.69134,-10.59121 -2.20476,-3e-5 -20.2853,4.16109 -45.30866,10.4275 -7.425,1.85938 -18,4.3847 -23.5,5.61182 -12.90532,2.87934 -13.80273,3.38088 -8.89915,4.97347 2.63491,0.85577 6.39118,3.82427 11.58505,9.15545 6.78786,6.96729 22.52815,26.19848 26.02242,31.79369 0.70002,1.12092 2.02367,2.03804 2.94144,2.03804 0.91776,0 9.47201,-1.96697 19.00945,-4.37104 z m -64.12404,-4.14715 c 3.52769,-1.82424 4.64096,-5.43528 2.94096,-9.53944 -3.18677,-7.69354 -13.40154,-6.18976 -15.50409,2.28246 -0.54676,2.20318 -0.0971,3.30398 2.34895,5.75 3.37822,3.37823 5.88141,3.74754 10.21418,1.50698 z m 222.90181,-35.44812 c 16.88058,-4.21259 48.96727,-11.77914 53.31302,-12.57206 2.0625,-0.37632 3.75,-1.00972 3.75,-1.40756 0,-1.55072 -60.2052,-41.12453 -61.83502,-40.64511 -0.91574,0.26937 -5.71498,1.43704 -10.66498,2.59482 -14.08861,3.29525 -35.93061,8.80444 -48.20119,12.15774 l -11.20119,3.06106 19.20119,12.74916 c 10.56066,7.01204 24.12836,16.20069 30.15047,20.41923 6.52475,4.57065 11.55044,7.43938 12.43698,7.09918 0.81824,-0.31399 6.69106,-1.86939 13.05072,-3.45646 z m 142.33756,-34.93873 c 11.124,-2.69777 21.80046,-5.21054 23.72546,-5.58392 7.12049,-1.38113 26.99977,-6.84388 26.99317,-7.41762 -0.004,-0.32638 -1.46626,-1.5541 -3.25,-2.72826 -1.78374,-1.17416 -15.23504,-10.06166 -29.89177,-19.75 C 652.19467,300.92682 639.40875,293 638.43824,293 c -4.42993,0 -69.46022,16.74662 -69.41091,17.87472 0.015,0.3439 8.90254,6.61449 19.75,13.93463 10.84747,7.32014 23.94582,16.20764 29.10744,19.75 5.16163,3.54236 9.78517,6.44065 10.27454,6.44065 0.48938,0 9.99123,-2.20727 21.11523,-4.90504 z M 744.29575,289.25 c -3.60235,-10.8625 -6.89272,-20.12764 -7.31194,-20.5892 -0.56358,-0.62051 -23.8377,4.56675 -34.30939,7.64676 -0.45407,0.13355 8.54593,6.51257 20,14.1756 11.45407,7.66302 22.09761,14.96419 23.65231,16.22481 1.55469,1.26061 3.20743,2.29203 3.67274,2.29203 0.46531,0 -2.10136,-8.8875 -5.70372,-19.75 z"
       id="path1" />
  </g>
</svg>
