<?xml version="1.0" encoding="UTF-8" standalone="no"?>
<!-- Created with Inkscape (http://www.inkscape.org/) -->

<svg
   version="1.1"
   id="svg1"
   width="1024"
   height="320"
   viewBox="70 380 870 270"
   sodipodi:docname="FramesCLI logo3.svg"
   inkscape:version="1.4.2 (f4327f4, 2025-05-13)"
   xmlns:inkscape="http://www.inkscape.org/namespaces/inkscape"
   xmlns:sodipodi="http://sodipodi.sourceforge.net/DTD/sodipodi-0.dtd"
   xmlns="http://www.w3.org/2000/svg"
   xmlns:svg="http://www.w3.org/2000/svg">
  <defs
     id="defs1" />
  <sodipodi:namedview
     id="namedview1"
     pagecolor="#ffffff"
     bordercolor="#000000"
     borderopacity="0.25"
     inkscape:showpageshadow="2"
     inkscape:pageopacity="0.0"
     inkscape:pagecheckerboard="0"
     inkscape:deskcolor="#d1d1d1"
     inkscape:zoom="1.1162109"
     inkscape:cx="512"
     inkscape:cy="512"
     inkscape:window-width="2560"
     inkscape:window-height="1361"
     inkscape:window-x="-9"
     inkscape:window-y="-9"
     inkscape:window-maximized="1"
     inkscape:current-layer="g1" />
  <g
     inkscape:groupmode="layer"
     inkscape:label="Image"
     id="g1">
    <path
       style="fill:#000000"
       d="m 170.5,627 c -54.51744,-0.5563 -51.50827,-0.16286 -58.64398,-7.66758 -2.00418,-2.10783 -4.70418,-5.85742 -6,-8.33242 l -2.35602,-4.5 0.3006,-34.57173 0.30061,-34.57174 -5.262634,-3.92826 C 88.712088,525.8694 89,527.04079 89,493.39917 c 0,-30.60068 0.32303,-33.21342 4.360457,-35.26846 1.176749,-0.59896 9.789543,-3.10427 19.139543,-5.56734 9.35,-2.46308 20.375,-5.37132 24.5,-6.46277 4.125,-1.09145 14.7,-3.82761 23.5,-6.08037 8.8,-2.25275 20.725,-5.40936 26.5,-7.01468 5.775,-1.60532 20.4,-5.44948 32.5,-8.54257 12.1,-3.0931 24.025,-6.24689 26.5,-7.00842 C 254.72332,414.77048 290.01215,406 292.08846,406 c 6.21731,0 9.60225,6.00349 15.02056,26.64024 3.18935,12.14729 2.97994,14.97166 -1.31439,17.72797 -1.26204,0.81004 -11.29463,3.72236 -22.29463,6.47183 -11,2.74947 -26.075,6.56506 -33.5,8.47908 -7.425,1.91403 -24.975,6.28012 -39,9.70243 -14.025,3.4223 -26.175,6.60543 -27,7.0736 -0.83446,0.47354 25.71314,0.7522 59.83275,0.62804 l 61.33276,-0.22319 2.41724,2.80576 C 309.92797,488.02792 310,488.603 310,504.60542 c 0,18.8178 -0.50179,20.57303 -7.28588,25.48558 L 298.5,533.14257 298,569.82129 c -0.49635,36.41084 -0.51788,36.71504 -2.9476,41.65263 -3.36521,6.83863 -9.87356,13.11049 -15.21364,14.66082 C 274.88553,627.57276 247.70767,627.78783 170.5,627 Z M 165,612 c 0,-1.88813 -0.66667,-2 -11.91821,-2 -6.55502,0 -12.63002,-0.27314 -13.5,-0.60699 -1.19311,-0.45784 -1.58179,0.0336 -1.58179,2 V 614 h 13.5 c 12.83333,0 13.5,-0.0988 13.5,-2 z m 16.25181,-12.5 c -0.14974,-7.975 -0.15516,-14.52337 -0.012,-14.55194 0.14312,-0.0286 21.18522,-0.29413 46.76022,-0.59013 25.575,-0.296 46.88829,-0.90842 47.36287,-1.36092 2.98433,-2.84556 -1.75745,-3.02896 -74.37833,-2.87686 -63.57925,0.13317 -73.95375,0.35723 -74.43354,1.60754 -0.30662,0.79903 -0.34986,1.78874 -0.0961,2.19934 0.25377,0.4106 11.61773,0.7922 25.25325,0.848 l 24.79185,0.10145 0.26129,13.31176 C 177.0548,613.14147 177.21602,614 179.73065,614 c 1.65463,0 1.77235,-1.12219 1.52116,-14.5 z m -17.89138,-34.13592 c 2.94113,-0.40313 4.63957,-1.13529 4.63957,-2 C 168,562.30291 165.77935,562 158,562 c -9.33333,0 -10,0.13333 -10,2 0,1.75126 0.66667,2 5.36043,2 2.94823,0 7.44823,-0.28617 10,-0.63592 z m -25.04613,-9.54135 c 4.11399,-2.06356 5.71933,-3.40958 5.48955,-4.60275 C 143.54938,549.89866 131.1059,542 129.27878,542 c -0.22984,0 -0.27408,1.0125 -0.0983,2.25 0.19869,1.39903 1.73681,3.00642 4.06685,4.25 2.06101,1.1 3.74851,2.24783 3.75,2.55073 0.001,0.30291 -2.0223,1.53456 -4.4973,2.73701 -3.19069,1.55016 -4.5,2.79157 -4.5,4.26665 0,2.49811 1.55618,2.1614 10.3143,-2.23166 z m 16.50078,-48.03031 C 159.86679,501.62826 164,496.22826 164,495.79242 164,495.35659 157.925,495 150.5,495 c -7.425,0 -13.48999,0.3375 -13.47776,0.75 0.0122,0.4125 0.90222,1.875 1.97776,3.25 2.39149,3.05734 2.62086,9.66859 0.4433,12.77749 -1.51297,2.16007 -2.07484,2.22251 -20,2.22251 -17.59466,0 -18.4433,0.0894 -18.4433,1.9425 0,2.42099 2.07282,2.64593 26.56508,2.88279 L 145.63017,519 Z m 53.14769,-0.286 c 4.65452,-5.65567 8.62952,-10.7833 8.83333,-11.39473 C 217.05567,495.33299 213.15448,495 203.77189,495 h -13.39477 l -9.63295,11.38895 c -5.29812,6.26392 -9.47192,11.55142 -9.2751,11.75 0.19681,0.19858 6.58428,0.20118 14.19438,0.006 L 199.5,517.78945 Z m 88.80398,10.13774 c 1.36221,-0.84189 1.82668,-21.6446 0.48325,-21.6436 -1.43449,0.001 -19.25,20.56189 -19.25,22.21637 0,1.17523 16.7664,0.66351 18.76675,-0.57277 z M 260.94993,507.3412 C 265.92747,501.47886 270,496.2866 270,495.80285 c 0,-0.48375 -5.82851,-0.81769 -12.95223,-0.74208 l -12.95224,0.13747 -9.54776,10.79847 C 229.29649,511.93587 225,517.06627 225,517.39759 225,517.72892 231.05247,518 238.44993,518 h 13.44992 z m -150.52136,-3.91263 c 1.88603,-1.88603 1.95289,-2.64711 0.37143,-4.22857 -1.62928,-1.62928 -3.34945,-1.50769 -5.22659,0.36945 -1.18468,1.18468 -1.31615,2.04273 -0.53624,3.5 1.25175,2.33891 3.27673,2.4738 5.3914,0.35912 z m 23.38785,-1.17002 c -0.33241,-2.87995 -3.19619,-4.27878 -5.02198,-2.45299 -1.76061,1.76061 0.11638,5.19444 2.83937,5.19444 2.13461,0 2.45289,-0.39977 2.18261,-2.74145 z M 146.75,479.35581 c 10.0375,-2.56793 18.25,-4.98124 18.25,-5.36291 0,-0.38167 -2.1375,-2.05729 -4.75,-3.72359 -2.6125,-1.6663 -7.78868,-5.16454 -11.50263,-7.77387 l -6.75263,-4.74424 -10.24737,2.54003 c -5.63605,1.39701 -12.59747,3.0699 -15.46982,3.71753 l -5.22246,1.1775 3.22246,3.16592 c 1.77235,1.74125 5.47245,5.97111 8.22245,9.3997 2.75,3.42858 5.225,6.24259 5.5,6.25335 0.275,0.0108 8.7125,-2.08148 18.75,-4.64942 z m -36.27865,0.2888 c 1.14868,-0.83994 1.6103,-1.98946 1.21381,-3.02268 -0.88465,-2.30536 -3.4161,-3.09012 -5.19789,-1.61136 -1.81083,1.50285 -1.95037,4.6359 -0.23727,5.32715 1.96508,0.79293 2.25393,0.7455 4.22135,-0.69311 z M 215.8772,461.04812 c 2.40747,-0.65654 3.98247,-1.54416 3.5,-1.97248 -0.48246,-0.42833 -5.7099,-4.03593 -11.61653,-8.01691 -9.89774,-6.67092 -11.03403,-7.18753 -14.5,-6.59239 -6.9018,1.18511 -23.63591,6.1574 -23.90072,7.10175 -0.14373,0.51255 3.29824,3.17156 7.64882,5.90891 4.35058,2.73735 9.28001,6.17302 10.95429,7.63483 l 3.04415,2.65784 10.24639,-2.76391 c 5.63552,-1.52016 12.21614,-3.30109 14.6236,-3.95764 z m 44.07929,-11.19253 c 6.89893,-1.72943 12.85628,-3.41693 13.23856,-3.75 C 274.1815,445.24612 251.55422,430 249.2922,430 c -3.16474,0 -25.67357,6.6441 -26.01893,7.6802 -0.17878,0.53634 0.69909,1.44945 1.95083,2.02912 1.25175,0.57967 6.1009,3.80342 10.7759,7.16389 4.675,3.36048 9.15542,6.11374 9.95649,6.11837 0.80107,0.005 7.10107,-1.40657 14,-3.13599 z M 295,435.52283 c 0,-1.14734 -5.17972,-14.10255 -5.94403,-14.86686 C 288.14325,419.74325 277,421.88723 277,422.97556 c 0,0.36152 3.35418,2.9992 7.45373,5.86151 4.09956,2.86231 7.72612,5.64491 8.05902,6.18356 0.61523,0.99547 2.48725,1.37345 2.48725,0.5022 z m 173.64846,143.45055 c -10.14737,-3.04157 -16.36865,-13.87138 -13.6878,-23.82728 2.43958,-9.05992 10.71123,-14.30874 24.54385,-15.57442 15.46882,-1.41539 15.49587,-1.42304 15.49175,-4.38295 -0.005,-3.81725 -3.47421,-9.0196 -6.52475,-9.78524 -5.21888,-1.30985 -11.72614,0.19787 -14.56454,3.37459 -1.46184,1.6361 -2.85341,3.56125 -3.09237,4.27813 -0.35306,1.05918 -1.73489,1.02142 -7.37454,-0.20148 -6.69731,-1.45225 -6.93267,-1.60434 -6.72876,-4.34806 0.31807,-4.27981 5.24338,-9.6216 12.2231,-13.25667 5.56509,-2.89833 7.13138,-3.25 14.47483,-3.25 10.15665,0 16.19557,1.93813 20.99585,6.73841 5.35089,5.3509 6.59492,10.77282 6.59492,28.74309 0,15.61756 0.45574,17.5185 4.2,17.5185 1.54534,0 1.8,0.90309 1.8,6.38337 0,7.03532 -0.55024,7.57289 -7.78212,7.60298 -3.54124,0.0147 -10.1978,-2.37867 -10.24968,-3.68532 -0.0175,-0.44057 -0.66958,-1.64321 -1.44909,-2.67253 -1.35507,-1.78935 -1.59768,-1.7171 -5.52672,1.64602 -5.94181,5.08597 -15.57998,7.02602 -23.34393,4.69886 z m 18.37537,-13.59959 C 491.61078,563.53845 495,558.25331 495,552.93576 v -3.14392 l -8.25,0.71405 c -10.41191,0.90116 -14.46286,2.50187 -15.35806,6.06864 -2.07285,8.25887 5.84431,12.71547 15.63189,8.79926 z m 167.84634,13.12045 C 647.39451,576.09697 640.87862,571.11289 637.22859,565 c -4.47852,-7.5004 -5.5157,-12.03186 -5.03546,-22 0.34781,-7.21916 0.89908,-9.4166 3.6584,-14.58281 6.14499,-11.50508 16.44155,-16.9817 30.47832,-16.21106 17.62759,0.96778 28.16167,11.61601 29.40263,29.72127 l 0.55078,8.03573 -23.89163,0.26844 c -23.25845,0.26132 -23.88309,0.32143 -23.56942,2.26843 0.64171,3.98311 5.29867,9.65183 9.49393,11.55654 7.47333,3.39301 15.59002,1.78717 20.64052,-4.08359 l 2.54334,-2.9564 5.84272,2.41777 c 3.21349,1.32978 6.06708,2.64214 6.3413,2.91637 2.21407,2.21407 -6.05858,11.01581 -13.59765,14.46731 -6.88287,3.15108 -18.25888,3.9073 -25.2162,1.67624 z M 678.99626,536.25 c -0.007,-3.06771 -3.64418,-7.85504 -7.27933,-9.58004 -7.29993,-3.46404 -16.15246,-1.20061 -20.447,5.22792 C 647.24076,537.9292 647.38847,538 664,538 c 13.62047,0 14.99966,-0.16094 14.99626,-1.75 z m 39.69401,42.65277 c -6.63843,-1.56186 -13.90335,-6.60775 -16.95743,-11.77788 -1.94367,-3.29038 -2.02206,-3.18542 5.66108,-7.57919 l 4.89393,-2.7987 3.10607,3.5416 c 4.09312,4.66704 6.93483,5.97831 13.15061,6.06815 8.92371,0.12899 13.14278,-4.85039 8.70547,-10.27427 -1.29084,-1.57783 -4.31338,-2.65235 -11.51972,-4.0953 -10.89768,-2.18207 -13.99683,-3.50497 -17.91666,-7.6479 -9.3598,-9.89251 -4.73516,-25.40146 9.17839,-30.78022 6.69956,-2.58994 18.2149,-2.38602 24.78144,0.43883 4.83069,2.07811 12.22655,8.72633 12.22655,10.9906 0,0.54049 -2.70038,2.34587 -6.00085,4.01194 l -6.00085,3.02922 -2.86727,-3.20903 c -2.56281,-2.86828 -3.55987,-3.25314 -9.38963,-3.62435 -5.67915,-0.36162 -6.8029,-0.13477 -8.69246,1.75479 -2.92759,2.92759 -2.40969,7.12361 1.085,8.79049 1.44866,0.69098 6.36881,1.96482 10.93365,2.83076 15.74247,2.98629 21.93241,8.56901 21.93241,19.7809 0,15.07765 -17.49151,24.977 -36.30973,20.54956 z m 74.92747,0.0482 c -26.70684,-6.70498 -40.76472,-40.62586 -28.01013,-67.58685 7.96833,-16.84367 26.78528,-26.48328 45.89037,-23.50889 8.44198,1.31429 18.28348,5.99289 22.35102,10.62558 3.93316,4.47962 7.90025,11.37824 8.31909,14.46659 0.31428,2.31738 -0.10659,2.5356 -7.92179,4.10747 l -8.25371,1.66006 -2.24629,-4.06306 c -3.49888,-6.3287 -9.48279,-9.97663 -17.16796,-10.46598 -11.37626,-0.72439 -19.92172,4.04736 -24.41541,13.63346 C 779.83526,522.78481 779.5,524.759 779.5,533.5 c 0,8.32566 0.3857,10.83717 2.30361,15 4.75789,10.327 11.81351,14.95984 22.74834,14.93694 9.14749,-0.0192 15.15755,-3.25107 19.20383,-10.3269 l 2.74422,-4.79888 8.18352,1.90711 8.18353,1.90711 -1.40634,3.98597 c -3.22269,9.13408 -12.45765,18.1288 -21.96071,21.38943 -5.89848,2.02385 -20.36804,2.83458 -25.88226,1.45019 z m -382.2056,-0.86764 C 411.18546,577.85417 411,563.11667 411,545.33333 V 513 h 7.39301 c 8.18764,0 8.60699,0.33178 8.60699,6.80963 v 3.64606 l 2.99879,-3.63805 C 433.88651,515.10116 440.35924,512 446.31572,512 H 451 v 8.5 8.5 h -6.92327 c -6.00984,0 -7.33395,0.34556 -10.03592,2.61912 C 428.36968,536.39106 428,538.05897 428,558.87419 v 18.97352 l -8.08786,0.32614 c -4.44833,0.17938 -8.27333,0.13865 -8.5,-0.0905 z M 532.25,578.20619 525,577.91238 V 545.45619 513 h 7.48818 7.48818 l 0.62479,3.90717 0.62478,3.90717 4.60425,-3.51451 C 551.7475,512.78304 553.9293,512 560.59722,512 c 6.85755,0 11.72467,2.00124 16.06838,6.60691 l 3.389,3.59339 2.07135,-2.63329 C 585.6793,515.04966 593.04479,512 600.40166,512 c 8.01493,0 11.0609,1.11109 15.87866,5.79209 5.98127,5.81149 6.71968,9.85683 6.71968,36.81326 v 23.24236 l -8.00235,0.32614 -8.00235,0.32615 -0.12265,-19.25 c -0.0675,-10.5875 -0.1992,-19.5875 -0.29276,-20 -0.0936,-0.4125 -0.50404,-2.418 -0.91218,-4.45667 -1.99645,-9.97225 -17.20561,-10.66551 -21.43221,-0.97691 -1.31625,3.01724 -1.58619,7.3467 -1.49224,23.93358 l 0.1147,20.25 h -6.84719 c -3.76596,0 -7.559,0.27314 -8.42898,0.60699 -1.41066,0.54132 -1.58179,-1.60895 -1.58179,-19.875 0,-23.40945 -0.30261,-25.76187 -3.75852,-29.21779 -3.35916,-3.35915 -10.67878,-3.53126 -14.7278,-0.3463 -4.92346,3.87279 -5.51368,6.9443 -5.51368,28.69299 0,15.08305 -0.30377,20.01189 -1.25,20.28212 -0.6875,0.19635 -4.5125,0.22478 -8.5,0.0632 z M 348,533.5 V 489 h 29.04206 29.04207 l -0.29207,7.75 -0.29206,7.75 h -20 -20 L 365.21725,515.75 364.9345,527 H 382.46725 400 v 7.5 7.5 h -11.35331 c -6.24432,0 -14.11932,0.28911 -17.5,0.64246 L 365,543.28491 V 560.64246 578 h -8.5 -8.5 z m 506,0 V 489 h 8.5 8.5 v 36.5 36.5 l 14.25,0.2117 c 7.8375,0.11644 16.275,0.22894 18.75,0.25 l 4.5,0.0383 0.30215,7.75 0.30214,7.75 H 881.55215 854 Z m 64,0 V 489 l 8.75,-9e-5 8.75,-10e-5 v 44.49999 44.49999 l -8.75,1.1e-4 L 918,578 Z"
       id="path2588" />
  </g>
</svg>
